<?xml version="1.0" encoding="UTF-8"?>
<svg width="1200pt" height="1200pt" version="1.1" viewBox="0 0 1200 1200" xmlns="http://www.w3.org/2000/svg">
 <path d="m936.14 623.95c13.223 0 22.984 10.758 21.57 23.93 0 0 1.0352-7.7734-0.023438 0.1875-23.496 176.1-174.3 311.93-356.82 311.93-198.82 0-360-161.18-360-360s161.18-360 360-360c182.47 0 333.23 135.76 356.8 311.78 1.0742 8.0078 0.050781 0.38281 0.050781 0.38281 1.3086 13.188-8.3555 23.883-21.574 23.883h-409.88c-6.6094 0-8.1797-3.7773-3.5391-8.4062l94.602-94.324c22.633-22.574-11.305-56.457-33.941-33.867l-141.73 139.94c-11.77 11.621-11.723 30.465 0.16797 42.141l141.56 139.02c22.637 22.59 56.574-11.281 33.941-33.867l-94.602-94.324c-4.6562-4.6406-3.1172-8.4062 3.5391-8.4062z" fill="#3f14b8" fill-rule="evenodd"/>
</svg>
