<svg width="71" height="54" viewBox="0 0 71 54" fill="none" xmlns="http://www.w3.org/2000/svg">
<path d="M29.6942 39.2738L34.7154 41.3662L27.4608 47.5611L29.6942 39.2738ZM63.3673 10.7747L52.6176 39.4254C51.8449 40.9867 51.4079 42.3414 50.919 42.8579C50.6751 43.124 50.4765 43.2517 49.9765 43.3397C49.4842 43.4216 48.6407 43.39 47.4072 43.0692L31.7792 36.5409L63.3673 10.7747ZM57.1437 6.71825L17.9002 30.7288L4.22838 24.7718C3.74109 24.4836 3.49164 24.1905 3.40092 23.9886C3.30412 23.7773 3.2997 23.6545 3.39096 23.4073C3.57957 22.9122 4.53258 21.8918 6.80754 21.2866C6.81971 21.2866 6.82967 21.2822 6.8435 21.2822L55.9973 7.04747L57.1437 6.71825ZM68.5406 0.00118949H68.472C68.2701 0.0150174 68.0726 0.0609262 67.889 0.142786L5.94048 18.0802C5.93606 18.0802 5.93606 18.0847 5.93274 18.0847L5.90453 18.0891C3.02276 18.8673 1.0067 20.2589 0.257233 22.2502C-0.116114 23.2535 -0.0834767 24.3979 0.3579 25.3647C0.799284 26.3355 1.59133 27.1081 2.58082 27.6767C2.63613 27.7094 2.692 27.7359 2.75007 27.7597L16.6768 33.8312L19.8715 43.6617C20.1376 44.5594 21.0961 45.0677 21.9922 44.779C22.8855 44.4858 23.3639 43.5201 23.047 42.6362L20.027 33.3323L61.7598 7.79396L27.516 35.721C27.5061 35.7288 27.5022 35.7343 27.4934 35.7432C27.1112 36.0363 26.8811 36.4849 26.8573 36.965L22.829 51.9006C22.4059 53.4803 24.2842 54.653 25.5304 53.5948L25.5769 53.5577C25.5868 53.55 25.5951 53.54 25.604 53.5306L38.1579 42.8064L46.2875 46.2003C46.3561 46.2319 46.4247 46.2556 46.4955 46.2733C48.0592 46.6909 49.3623 46.8132 50.5272 46.6168C51.692 46.4205 52.6848 45.8441 53.358 45.1251C54.707 43.6871 55.0516 42.0166 55.6363 40.8485C55.6601 40.7937 55.6827 40.7428 55.7015 40.6831L70.0382 2.4775V2.46754C70.2655 2.05603 70.3015 1.56597 70.1449 1.12237C70.0896 0.966392 70.0111 0.815945 69.9104 0.682646C69.8922 0.658862 69.8728 0.636738 69.854 0.612954C69.8402 0.590829 69.823 0.572576 69.8037 0.554877C69.7854 0.532199 69.7622 0.508968 69.7401 0.490716C69.7218 0.472463 69.7025 0.454763 69.6881 0.435406C69.666 0.417153 69.6416 0.399453 69.614 0.380648C69.3125 0.128988 68.9309 -0.00432494 68.5387 0.00010703L68.5406 0.00118949Z" fill="#02B812"/>
</svg>
