<svg width="342" height="184" viewBox="0 0 342 184" fill="none" xmlns="http://www.w3.org/2000/svg">
<g clip-path="url(#clip0_1_2)">
<path d="M60.9748 62.4008C59.8041 63.9896 58.285 65.2858 56.4174 66.2892C54.5499 67.2648 52.306 67.7526 49.6859 67.7526C47.4281 67.7526 45.3376 67.3763 43.4143 66.6237C41.5189 65.8432 39.8743 64.7701 38.4807 63.4043C37.1148 62.0106 36.0417 60.366 35.2612 58.4706C34.4808 56.5473 34.0905 54.4429 34.0905 52.1572C34.0905 49.8437 34.4808 47.7392 35.2612 45.8438C36.0696 43.9205 37.1706 42.2899 38.5643 40.952C39.9858 39.5861 41.6583 38.5269 43.5816 37.7743C45.5048 37.0217 47.5954 36.6455 49.8532 36.6455C50.8566 36.6455 51.874 36.743 52.9053 36.9381C53.9367 37.1332 54.9262 37.4259 55.8739 37.8162C56.8216 38.2064 57.6857 38.6942 58.4662 39.2795C59.2466 39.837 59.9156 40.492 60.4731 41.2446L57.2118 43.7533C56.4871 42.7498 55.4558 41.9275 54.1178 41.2864C52.8078 40.6175 51.3862 40.283 49.8532 40.283C48.125 40.283 46.5641 40.6035 45.1704 41.2446C43.8045 41.8578 42.6338 42.708 41.6583 43.7951C40.6827 44.8822 39.9301 46.1504 39.4005 47.5998C38.8709 49.0214 38.6061 50.5405 38.6061 52.1572C38.6061 53.8296 38.857 55.3906 39.3587 56.84C39.8883 58.2894 40.6269 59.5577 41.5746 60.6448C42.5502 61.704 43.7209 62.5402 45.0867 63.1534C46.4804 63.7666 48.0274 64.0733 49.7277 64.0733C51.4002 64.0733 52.9193 63.7388 54.2851 63.0698C55.6509 62.4008 56.7798 61.4252 57.6718 60.1431L60.9748 62.4008ZM66.0342 37.398H70.1735V49.774H85.1417V37.398H89.3228V67H85.1417V53.4533H70.1735V67H66.0342V37.398ZM98.5427 67H93.9435L106.779 37.398H110.542L123.253 67H118.57L115.56 59.7249H101.511L98.5427 67ZM102.975 56.0874H114.054L108.535 42.2063L102.975 56.0874ZM148.755 61.0629H148.838V37.398H152.978V67H147.751L132.114 42.8334H132.03V67H127.891V37.398H133.285L148.755 61.0629ZM183.351 43.5024C182.459 42.5268 181.317 41.7464 179.923 41.161C178.557 40.5757 177.024 40.283 175.324 40.283C173.596 40.283 172.035 40.6035 170.641 41.2446C169.247 41.8578 168.063 42.708 167.087 43.7951C166.111 44.8822 165.359 46.1504 164.829 47.5998C164.3 49.0214 164.035 50.5405 164.035 52.1572C164.035 53.8018 164.3 55.3488 164.829 56.7982C165.359 58.2476 166.111 59.5159 167.087 60.603C168.063 61.6622 169.261 62.4984 170.683 63.1116C172.104 63.7248 173.693 64.0314 175.449 64.0314C176.843 64.0314 178.125 63.906 179.296 63.6551C180.466 63.4043 181.484 63.0419 182.348 62.5681V54.3314H175.784V50.8193H186.445V65.1603C184.884 65.9965 183.184 66.6376 181.344 67.0836C179.505 67.5296 177.498 67.7526 175.324 67.7526C173.01 67.7526 170.878 67.3763 168.927 66.6237C167.003 65.8432 165.345 64.7701 163.951 63.4043C162.558 62.0106 161.47 60.366 160.69 58.4706C159.91 56.5473 159.519 54.4429 159.519 52.1572C159.519 49.8437 159.91 47.7392 160.69 45.8438C161.498 43.9205 162.599 42.2899 163.993 40.952C165.415 39.5861 167.087 38.5269 169.01 37.7743C170.934 37.0217 173.024 36.6455 175.282 36.6455C177.651 36.6455 179.756 36.9939 181.595 37.6907C183.463 38.3876 185.01 39.3213 186.236 40.492L183.351 43.5024ZM198.542 63.3207H214.012V67H194.403V37.398H213.385V41.0356H198.542V49.8994H212.507V53.4533H198.542V63.3207Z" fill="black"/>
<path d="M65.1845 89.1545C65.1845 91.4402 64.7804 93.5446 63.972 95.4679C63.1916 97.3634 62.1045 99.0079 60.7108 100.402C59.3171 101.767 57.6586 102.841 55.7353 103.621C53.812 104.374 51.7215 104.75 49.4637 104.75C47.2059 104.75 45.1154 104.374 43.1921 103.621C41.2967 102.841 39.6521 101.767 38.2585 100.402C36.8648 99.0079 35.7777 97.3634 34.9972 95.4679C34.2168 93.5446 33.8265 91.4402 33.8265 89.1545C33.8265 86.841 34.2168 84.7365 34.9972 82.8411C35.7777 80.9178 36.8648 79.2872 38.2585 77.9493C39.6521 76.5835 41.2967 75.5242 43.1921 74.7717C45.1154 74.0191 47.2059 73.6428 49.4637 73.6428C51.7215 73.6428 53.812 74.0191 55.7353 74.7717C57.6586 75.5242 59.3171 76.5835 60.7108 77.9493C62.1045 79.2872 63.1916 80.9178 63.972 82.8411C64.7804 84.7365 65.1845 86.841 65.1845 89.1545ZM60.7108 89.1545C60.7108 87.5378 60.446 86.0187 59.9164 84.5972C59.3868 83.1477 58.6342 81.8795 57.6586 80.7924C56.683 79.7053 55.4984 78.8552 54.1047 78.2419C52.7389 77.6008 51.1919 77.2803 49.4637 77.2803C47.7634 77.2803 46.2164 77.6008 44.8227 78.2419C43.4569 78.8552 42.2862 79.7053 41.3106 80.7924C40.3629 81.8795 39.6243 83.1477 39.0947 84.5972C38.5651 86.0187 38.3003 87.5378 38.3003 89.1545C38.3003 90.7991 38.5651 92.3461 39.0947 93.7955C39.6243 95.2449 40.3769 96.5132 41.3524 97.6003C42.328 98.6595 43.4987 99.4957 44.8645 100.109C46.2304 100.722 47.7634 101.029 49.4637 101.029C51.164 101.029 52.711 100.722 54.1047 100.109C55.4984 99.4957 56.683 98.6595 57.6586 97.6003C58.6342 96.5132 59.3868 95.2449 59.9164 93.7955C60.446 92.3461 60.7108 90.7991 60.7108 89.1545ZM91.6771 98.0602H91.7608V74.3954H95.9V103.997H90.6737L75.0365 79.8307H74.9529V103.997H70.8136V74.3954H76.2072L91.6771 98.0602ZM107.25 100.318H122.72V103.997H103.111V74.3954H122.093V78.0329H107.25V86.8968H121.215V90.4507H107.25V100.318ZM142.814 100.318H156.026V103.997H138.674V74.3954H142.814V100.318ZM164.168 103.997H160.029V74.3954H164.168V103.997ZM175.519 103.997H171.38V74.3954H189.86V78.0329H175.519V87.2312H188.94V90.7851H175.519V103.997ZM199.282 100.318H214.752V103.997H195.143V74.3954H214.125V78.0329H199.282V86.8968H213.247V90.4507H199.282V100.318Z" fill="black"/>
<path d="M144.966 31.5067H140.785V18.7126L129.705 1.9047H134.806L143.001 15.2841L151.238 1.9047H156.046L144.966 18.7126V31.5067ZM187.431 16.6639C187.431 18.9495 187.027 21.054 186.219 22.9773C185.438 24.8727 184.351 26.5172 182.958 27.9109C181.564 29.2768 179.905 30.3499 177.982 31.1304C176.059 31.8829 173.968 32.2592 171.711 32.2592C169.453 32.2592 167.362 31.8829 165.439 31.1304C163.544 30.3499 161.899 29.2768 160.505 27.9109C159.112 26.5172 158.025 24.8727 157.244 22.9773C156.464 21.054 156.073 18.9495 156.073 16.6639C156.073 14.3503 156.464 12.2459 157.244 10.3505C158.025 8.42716 159.112 6.79655 160.505 5.45861C161.899 4.09279 163.544 3.03359 165.439 2.28099C167.362 1.5284 169.453 1.15211 171.711 1.15211C173.968 1.15211 176.059 1.5284 177.982 2.28099C179.905 3.03359 181.564 4.09279 182.958 5.45861C184.351 6.79655 185.438 8.42716 186.219 10.3505C187.027 12.2459 187.431 14.3503 187.431 16.6639ZM182.958 16.6639C182.958 15.0472 182.693 13.5281 182.163 12.1065C181.634 10.6571 180.881 9.38881 179.905 8.30173C178.93 7.21465 177.745 6.3645 176.352 5.75128C174.986 5.11018 173.439 4.78963 171.711 4.78963C170.01 4.78963 168.463 5.11018 167.07 5.75128C165.704 6.3645 164.533 7.21465 163.557 8.30173C162.61 9.38881 161.871 10.6571 161.342 12.1065C160.812 13.5281 160.547 15.0472 160.547 16.6639C160.547 18.3084 160.812 19.8554 161.342 21.3048C161.871 22.7543 162.624 24.0225 163.599 25.1096C164.575 26.1688 165.746 27.005 167.111 27.6183C168.477 28.2315 170.01 28.5381 171.711 28.5381C173.411 28.5381 174.958 28.2315 176.352 27.6183C177.745 27.005 178.93 26.1688 179.905 25.1096C180.881 24.0225 181.634 22.7543 182.163 21.3048C182.693 19.8554 182.958 18.3084 182.958 16.6639ZM203.513 32.2592C201.562 32.2592 199.862 31.9387 198.412 31.2976C196.963 30.6286 195.764 29.7506 194.817 28.6635C193.869 27.5764 193.158 26.3361 192.684 24.9424C192.238 23.5208 192.015 22.0574 192.015 20.5523V1.9047H196.154V20.3014C196.154 21.3048 196.28 22.3083 196.531 23.3118C196.782 24.2873 197.186 25.1654 197.743 25.9458C198.329 26.7263 199.081 27.3535 200.001 27.8273C200.949 28.3012 202.119 28.5381 203.513 28.5381C204.879 28.5381 206.036 28.3012 206.983 27.8273C207.931 27.3535 208.684 26.7263 209.241 25.9458C209.827 25.1654 210.245 24.2873 210.496 23.3118C210.746 22.3083 210.872 21.3048 210.872 20.3014V1.9047H215.011V20.5523C215.011 22.0574 214.774 23.5208 214.3 24.9424C213.854 26.3361 213.157 27.5764 212.21 28.6635C211.262 29.7506 210.063 30.6286 208.614 31.2976C207.165 31.9387 205.464 32.2592 203.513 32.2592Z" fill="black"/>
<path d="M58.8425 20.1292C58.8425 21.9131 58.5358 23.5298 57.9226 24.9793C57.3094 26.4008 56.4732 27.6133 55.414 28.6168C54.3548 29.6202 53.1005 30.4007 51.651 30.9582C50.2016 31.4878 48.6267 31.7526 46.9264 31.7526C45.2261 31.7526 43.6512 31.4878 42.2018 30.9582C40.7524 30.4007 39.4841 29.6202 38.397 28.6168C37.3378 27.6133 36.5016 26.4008 35.8884 24.9793C35.303 23.5298 35.0104 21.9131 35.0104 20.1292V1.39805H40.2785V19.9202C40.2785 20.7843 40.39 21.6483 40.613 22.5124C40.836 23.3486 41.1983 24.1012 41.7001 24.7702C42.2297 25.4392 42.9126 25.9827 43.7488 26.4008C44.6129 26.8189 45.6721 27.028 46.9264 27.028C48.1807 27.028 49.226 26.8189 50.0622 26.4008C50.9263 25.9827 51.6092 25.4392 52.1109 24.7702C52.6405 24.1012 53.0168 23.3486 53.2398 22.5124C53.4628 21.6483 53.5743 20.7843 53.5743 19.9202V1.39805H58.8425V20.1292ZM86.0556 8.33862C85.2752 7.27941 84.2578 6.51288 83.0035 6.03903C81.7491 5.5373 80.5227 5.28644 79.3241 5.28644C77.7911 5.28644 76.3974 5.56518 75.1431 6.12265C73.8887 6.68013 72.8017 7.44665 71.8818 8.42224C70.9899 9.39782 70.293 10.5406 69.7913 11.8507C69.3174 13.1608 69.0805 14.5823 69.0805 16.1154C69.0805 17.7321 69.3174 19.2094 69.7913 20.5473C70.2651 21.8853 70.9341 23.042 71.7982 24.0176C72.6902 24.9653 73.7494 25.704 74.9758 26.2336C76.2023 26.7632 77.582 27.028 79.1151 27.028C80.7039 27.028 82.1115 26.7214 83.338 26.1082C84.5644 25.4671 85.5539 24.6308 86.3065 23.5995L90.5294 26.5681C89.2193 28.2126 87.6166 29.4948 85.7212 30.4147C83.8257 31.3066 81.6098 31.7526 79.0733 31.7526C76.7597 31.7526 74.6274 31.3763 72.6762 30.6237C70.7529 29.8432 69.0944 28.7701 67.7008 27.4043C66.3071 26.0106 65.22 24.366 64.4395 22.4706C63.6591 20.5473 63.2688 18.4289 63.2688 16.1154C63.2688 13.7461 63.673 11.6138 64.4813 9.71837C65.3176 7.79508 66.4464 6.16446 67.868 4.82652C69.3174 3.48858 71.0177 2.45725 72.9689 1.73253C74.9201 1.00781 77.0385 0.645454 79.3241 0.645454C80.2718 0.645454 81.2614 0.743012 82.2927 0.938127C83.324 1.10537 84.3135 1.38411 85.2612 1.77434C86.209 2.1367 87.1009 2.59662 87.9371 3.15409C88.7733 3.71157 89.4841 4.38054 90.0695 5.16101L86.0556 8.33862ZM99.698 7.5024L93.8445 12.3106L90.9178 8.84034L100.158 1.39805H104.715V31H99.698V7.5024ZM111.796 1.39805H117.064V26.3172H129.649V31H111.796V1.39805Z" fill="url(#paint0_linear_1_2)"/>
<path fill-rule="evenodd" clip-rule="evenodd" d="M247.651 165.183C247.651 161.335 248.809 157.639 251 154.491L255.333 157.508C253.763 159.765 252.932 162.42 252.932 165.183C252.932 172.601 258.968 178.637 266.385 178.637C273.804 178.637 279.84 172.601 279.84 165.183C279.84 157.765 273.804 151.729 266.385 151.729C265.476 151.729 19.3453 151.953 18.5507 151.956L18.536 146.675C21.776 146.665 265.469 146.448 266.385 146.448C276.717 146.448 285.12 154.852 285.12 165.183C285.12 175.513 276.717 183.917 266.385 183.917C256.056 183.917 247.651 175.513 247.651 165.183ZM303.8 153.275C303.8 149.428 304.957 145.731 307.147 142.584L311.483 145.599C309.912 147.857 309.08 150.511 309.08 153.275C309.08 160.692 315.116 166.728 322.535 166.728C329.953 166.728 335.988 160.692 335.988 153.275C335.988 145.856 329.953 139.821 322.535 139.821C321.625 139.821 1.54933 140.044 0.00666809 140.047L0 134.767C1.54 134.764 321.621 134.54 322.535 134.54C332.864 134.54 341.269 142.944 341.269 153.275C341.269 163.605 332.864 172.009 322.535 172.009C312.204 172.009 303.8 163.605 303.8 153.275ZM0.0559998 128.199L0.0653331 122.917C1.296 122.92 290.749 123.144 291.66 123.144C299.077 123.144 305.112 117.108 305.112 109.691C305.112 102.272 299.077 96.236 291.66 96.236C284.24 96.236 278.204 102.272 278.204 109.691C278.204 112.453 279.036 115.108 280.607 117.365L276.272 120.383C274.081 117.235 272.924 113.537 272.924 109.691C272.924 99.36 281.328 90.956 291.66 90.956C301.989 90.956 310.395 99.36 310.395 109.691C310.395 120.021 301.989 128.425 291.66 128.425C290.744 128.425 5.08133 128.208 0.0559998 128.199ZM18.084 115.963L18.1053 110.681C18.6507 110.683 240.135 110.909 241.041 110.909C248.46 110.909 254.495 104.873 254.495 97.4547C254.495 90.036 248.46 84.0013 241.041 84.0013C233.623 84.0013 227.587 90.036 227.587 97.4547C227.587 100.217 228.419 102.872 229.991 105.129L225.655 108.147C223.464 104.999 222.307 101.301 222.307 97.4547C222.307 87.124 230.711 78.72 241.041 78.72C251.371 78.72 259.776 87.124 259.776 97.4547C259.776 107.784 251.371 116.189 241.041 116.189C240.123 116.189 20.308 115.971 18.084 115.963Z" fill="url(#paint1_linear_1_2)"/>
<path d="M31.8429 169.637C31.8429 170.481 31.6895 171.255 31.3827 171.961C31.0913 172.667 30.6771 173.28 30.1402 173.802C29.6187 174.308 28.9974 174.707 28.2765 174.998C27.5555 175.274 26.7808 175.412 25.9525 175.412C25.1242 175.412 24.3495 175.274 23.6286 174.998C22.9076 174.707 22.2864 174.308 21.7648 173.802C21.2433 173.28 20.8291 172.667 20.5223 171.961C20.2309 171.255 20.0851 170.481 20.0851 169.637C20.0851 168.793 20.2309 168.026 20.5223 167.336C20.8291 166.631 21.2433 166.025 21.7648 165.518C22.2864 165.012 22.9076 164.621 23.6286 164.345C24.3495 164.054 25.1242 163.908 25.9525 163.908C26.7808 163.908 27.5555 164.054 28.2765 164.345C28.9974 164.621 29.6187 165.012 30.1402 165.518C30.6771 166.025 31.0913 166.631 31.3827 167.336C31.6895 168.026 31.8429 168.793 31.8429 169.637ZM29.588 169.637C29.588 169.116 29.5036 168.617 29.3349 168.142C29.1815 167.666 28.9514 167.252 28.6446 166.899C28.3378 166.531 27.9543 166.239 27.4941 166.025C27.0493 165.81 26.5354 165.703 25.9525 165.703C25.3696 165.703 24.8481 165.81 24.3879 166.025C23.943 166.239 23.5672 166.531 23.2604 166.899C22.9536 167.252 22.7159 167.666 22.5471 168.142C22.3937 168.617 22.317 169.116 22.317 169.637C22.317 170.159 22.3937 170.657 22.5471 171.133C22.7159 171.608 22.9536 172.03 23.2604 172.398C23.5672 172.766 23.943 173.058 24.3879 173.273C24.8481 173.487 25.3696 173.595 25.9525 173.595C26.5354 173.595 27.0493 173.487 27.4941 173.273C27.9543 173.058 28.3378 172.766 28.6446 172.398C28.9514 172.03 29.1815 171.608 29.3349 171.133C29.5036 170.657 29.588 170.159 29.588 169.637ZM36.798 164.207C36.8287 164.483 36.8517 164.798 36.867 165.15C36.8824 165.488 36.89 165.772 36.89 166.002H36.9591C37.0971 165.71 37.2812 165.442 37.5113 165.196C37.7567 164.936 38.0328 164.713 38.3396 164.529C38.6464 164.33 38.9839 164.176 39.352 164.069C39.7202 163.962 40.1037 163.908 40.5025 163.908C41.2081 163.908 41.814 164.031 42.3202 164.276C42.8264 164.506 43.2483 164.821 43.5857 165.219C43.9232 165.618 44.1687 166.086 44.322 166.623C44.4908 167.16 44.5751 167.735 44.5751 168.349V175.113H42.4123V169.062C42.4123 168.617 42.3739 168.195 42.2972 167.796C42.2359 167.398 42.1132 167.045 41.9291 166.738C41.745 166.431 41.4919 166.186 41.1698 166.002C40.8476 165.818 40.4335 165.726 39.9273 165.726C39.0682 165.726 38.3626 166.055 37.8104 166.715C37.2735 167.359 37.0051 168.226 37.0051 169.315V175.113H34.8422V166.554C34.8422 166.262 34.8345 165.887 34.8192 165.426C34.8039 164.966 34.7808 164.56 34.7502 164.207H36.798ZM56.2186 168.694C56.2033 168.264 56.1266 167.865 55.9885 167.497C55.8658 167.114 55.674 166.784 55.4133 166.508C55.1678 166.232 54.8534 166.017 54.4699 165.864C54.1017 165.695 53.6646 165.611 53.1584 165.611C52.6982 165.611 52.261 165.695 51.8468 165.864C51.448 166.017 51.0952 166.232 50.7884 166.508C50.4969 166.784 50.2515 167.114 50.0521 167.497C49.868 167.865 49.7606 168.264 49.73 168.694H56.2186ZM58.4045 169.568C58.4045 169.691 58.4045 169.814 58.4045 169.936C58.4045 170.059 58.3968 170.182 58.3815 170.304H49.73C49.7453 170.765 49.845 171.202 50.0291 171.616C50.2285 172.015 50.4893 172.368 50.8114 172.674C51.1335 172.966 51.5017 173.196 51.9158 173.365C52.3454 173.533 52.7979 173.618 53.2734 173.618C54.0097 173.618 54.6463 173.457 55.1832 173.135C55.7201 172.812 56.1419 172.421 56.4487 171.961L57.9673 173.181C57.3844 173.948 56.6941 174.515 55.8965 174.883C55.1141 175.236 54.2398 175.412 53.2734 175.412C52.4451 175.412 51.6781 175.274 50.9725 174.998C50.2668 174.722 49.6609 174.339 49.1547 173.848C48.6485 173.342 48.2497 172.736 47.9582 172.03C47.6668 171.325 47.5211 170.542 47.5211 169.683C47.5211 168.839 47.6591 168.065 47.9352 167.359C48.2267 166.638 48.6255 166.025 49.1317 165.518C49.6379 165.012 50.2362 164.621 50.9264 164.345C51.6167 164.054 52.3607 163.908 53.1584 163.908C53.956 163.908 54.677 164.038 55.3212 164.299C55.9808 164.56 56.5331 164.936 56.9779 165.426C57.4381 165.917 57.7909 166.516 58.0363 167.221C58.2818 167.911 58.4045 168.694 58.4045 169.568ZM69.3165 173.388V175.113H67.2226V157.718H69.3855V165.841H69.4545C69.8227 165.304 70.3366 164.851 70.9962 164.483C71.6558 164.1 72.4381 163.908 73.3431 163.908C74.1561 163.908 74.8924 164.054 75.552 164.345C76.2269 164.636 76.8022 165.043 77.2777 165.564C77.7686 166.086 78.1444 166.7 78.4052 167.405C78.6659 168.096 78.7963 168.839 78.7963 169.637C78.7963 170.435 78.6659 171.186 78.4052 171.892C78.1444 172.598 77.7762 173.211 77.3007 173.733C76.8252 174.254 76.25 174.669 75.575 174.975C74.9001 175.267 74.1408 175.412 73.2971 175.412C72.5148 175.412 71.7708 175.244 71.0652 174.906C70.3596 174.553 69.792 174.047 69.3625 173.388H69.3165ZM76.5644 169.637C76.5644 169.131 76.4877 168.64 76.3343 168.165C76.1809 167.689 75.9508 167.267 75.644 166.899C75.3373 166.531 74.9538 166.239 74.4936 166.025C74.0487 165.81 73.5272 165.703 72.9289 165.703C72.3767 165.703 71.8705 165.81 71.4103 166.025C70.9655 166.239 70.582 166.531 70.2599 166.899C69.9377 167.267 69.6846 167.689 69.5006 168.165C69.3318 168.64 69.2474 169.139 69.2474 169.66C69.2474 170.182 69.3318 170.68 69.5006 171.156C69.6846 171.631 69.9377 172.053 70.2599 172.421C70.582 172.774 70.9655 173.058 71.4103 173.273C71.8705 173.487 72.3767 173.595 72.9289 173.595C73.5272 173.595 74.0487 173.487 74.4936 173.273C74.9538 173.043 75.3373 172.743 75.644 172.375C75.9508 172.007 76.1809 171.585 76.3343 171.11C76.4877 170.634 76.5644 170.143 76.5644 169.637ZM81.8046 166.554C81.8046 166.262 81.7969 165.887 81.7816 165.426C81.7663 164.966 81.7433 164.56 81.7126 164.207H83.7604C83.7911 164.483 83.8141 164.805 83.8294 165.173C83.8448 165.526 83.8524 165.818 83.8524 166.048H83.9215C84.2283 165.403 84.6731 164.89 85.256 164.506C85.8543 164.107 86.5215 163.908 87.2578 163.908C87.5953 163.908 87.8791 163.939 88.1092 164L88.0171 166.002C87.7103 165.925 87.3805 165.887 87.0277 165.887C86.5062 165.887 86.0537 165.986 85.6702 166.186C85.2867 166.37 84.9646 166.623 84.7038 166.945C84.4584 167.267 84.2743 167.643 84.1516 168.073C84.0288 168.487 83.9675 168.924 83.9675 169.384V175.113H81.8046V166.554ZM97.7208 168.694C97.7054 168.264 97.6287 167.865 97.4907 167.497C97.368 167.114 97.1762 166.784 96.9155 166.508C96.67 166.232 96.3556 166.017 95.9721 165.864C95.6039 165.695 95.1667 165.611 94.6605 165.611C94.2004 165.611 93.7632 165.695 93.349 165.864C92.9502 166.017 92.5974 166.232 92.2906 166.508C91.9991 166.784 91.7537 167.114 91.5543 167.497C91.3702 167.865 91.2628 168.264 91.2322 168.694H97.7208ZM99.9067 169.568C99.9067 169.691 99.9067 169.814 99.9067 169.936C99.9067 170.059 99.899 170.182 99.8837 170.304H91.2322C91.2475 170.765 91.3472 171.202 91.5313 171.616C91.7307 172.015 91.9915 172.368 92.3136 172.674C92.6357 172.966 93.0039 173.196 93.418 173.365C93.8475 173.533 94.3001 173.618 94.7756 173.618C95.5119 173.618 96.1485 173.457 96.6854 173.135C97.2222 172.812 97.6441 172.421 97.9509 171.961L99.4695 173.181C98.8866 173.948 98.1963 174.515 97.3987 174.883C96.6163 175.236 95.742 175.412 94.7756 175.412C93.9473 175.412 93.1803 175.274 92.4747 174.998C91.769 174.722 91.1631 174.339 90.6569 173.848C90.1507 173.342 89.7519 172.736 89.4604 172.03C89.169 171.325 89.0233 170.542 89.0233 169.683C89.0233 168.839 89.1613 168.065 89.4374 167.359C89.7289 166.638 90.1277 166.025 90.6339 165.518C91.1401 165.012 91.7384 164.621 92.4286 164.345C93.1189 164.054 93.8629 163.908 94.6605 163.908C95.4582 163.908 96.1792 164.038 96.8234 164.299C97.483 164.56 98.0352 164.936 98.4801 165.426C98.9403 165.917 99.2931 166.516 99.5385 167.221C99.784 167.911 99.9067 168.694 99.9067 169.568ZM109.579 168.05C109.579 167.237 109.334 166.638 108.843 166.255C108.352 165.856 107.7 165.657 106.887 165.657C106.274 165.657 105.691 165.779 105.139 166.025C104.602 166.255 104.149 166.554 103.781 166.922L102.631 165.541C103.167 165.035 103.819 164.636 104.586 164.345C105.369 164.054 106.205 163.908 107.094 163.908C107.877 163.908 108.552 164.023 109.119 164.253C109.702 164.468 110.178 164.767 110.546 165.15C110.914 165.534 111.19 165.986 111.374 166.508C111.558 167.029 111.65 167.589 111.65 168.188V172.95C111.65 173.319 111.658 173.71 111.673 174.124C111.704 174.523 111.75 174.853 111.811 175.113H109.856C109.733 174.592 109.671 174.07 109.671 173.549H109.602C109.204 174.132 108.697 174.584 108.084 174.906C107.486 175.228 106.772 175.389 105.944 175.389C105.514 175.389 105.062 175.328 104.586 175.205C104.126 175.098 103.704 174.914 103.321 174.653C102.937 174.392 102.615 174.047 102.354 173.618C102.109 173.188 101.986 172.659 101.986 172.03C101.986 171.202 102.209 170.55 102.654 170.074C103.098 169.583 103.681 169.215 104.402 168.97C105.123 168.709 105.936 168.54 106.841 168.464C107.746 168.387 108.659 168.349 109.579 168.349V168.05ZM109.05 169.913C108.513 169.913 107.953 169.936 107.371 169.982C106.803 170.028 106.281 170.12 105.806 170.258C105.346 170.396 104.962 170.604 104.655 170.88C104.349 171.156 104.195 171.524 104.195 171.984C104.195 172.306 104.257 172.575 104.379 172.789C104.517 173.004 104.694 173.181 104.909 173.319C105.123 173.457 105.361 173.556 105.622 173.618C105.883 173.664 106.151 173.687 106.427 173.687C107.44 173.687 108.214 173.388 108.751 172.789C109.303 172.176 109.579 171.409 109.579 170.488V169.913H109.05ZM120.376 165.979H117.477V171.662C117.477 172.322 117.6 172.797 117.845 173.089C118.09 173.365 118.482 173.503 119.018 173.503C119.218 173.503 119.433 173.48 119.663 173.434C119.893 173.388 120.1 173.319 120.284 173.227L120.353 174.998C120.092 175.09 119.801 175.159 119.479 175.205C119.172 175.267 118.85 175.297 118.512 175.297C117.484 175.297 116.694 175.014 116.142 174.446C115.605 173.879 115.337 173.027 115.337 171.892V165.979H113.243V164.207H115.337V161.078H117.477V164.207H120.376V165.979ZM124.865 165.864C125.126 165.327 125.571 164.867 126.2 164.483C126.829 164.1 127.534 163.908 128.317 163.908C129.022 163.908 129.628 164.031 130.134 164.276C130.64 164.506 131.062 164.821 131.4 165.219C131.737 165.618 131.983 166.086 132.136 166.623C132.305 167.16 132.389 167.735 132.389 168.349V175.113H130.226V169.085C130.226 168.64 130.188 168.218 130.111 167.819C130.05 167.421 129.927 167.068 129.743 166.761C129.559 166.454 129.306 166.209 128.984 166.025C128.677 165.841 128.271 165.749 127.764 165.749C126.905 165.749 126.2 166.078 125.647 166.738C125.095 167.382 124.819 168.249 124.819 169.338V175.113H122.656V157.718H124.819V165.864H124.865ZM148.587 168.05C148.587 167.237 148.342 166.638 147.851 166.255C147.36 165.856 146.708 165.657 145.895 165.657C145.282 165.657 144.699 165.779 144.147 166.025C143.61 166.255 143.157 166.554 142.789 166.922L141.639 165.541C142.175 165.035 142.827 164.636 143.594 164.345C144.377 164.054 145.213 163.908 146.102 163.908C146.885 163.908 147.56 164.023 148.127 164.253C148.71 164.468 149.186 164.767 149.554 165.15C149.922 165.534 150.198 165.986 150.382 166.508C150.566 167.029 150.658 167.589 150.658 168.188V172.95C150.658 173.319 150.666 173.71 150.681 174.124C150.712 174.523 150.758 174.853 150.819 175.113H148.864C148.741 174.592 148.679 174.07 148.679 173.549H148.61C148.212 174.132 147.705 174.584 147.092 174.906C146.494 175.228 145.78 175.389 144.952 175.389C144.522 175.389 144.07 175.328 143.594 175.205C143.134 175.098 142.712 174.914 142.329 174.653C141.945 174.392 141.623 174.047 141.362 173.618C141.117 173.188 140.994 172.659 140.994 172.03C140.994 171.202 141.217 170.55 141.662 170.074C142.106 169.583 142.689 169.215 143.41 168.97C144.131 168.709 144.944 168.54 145.849 168.464C146.754 168.387 147.667 168.349 148.587 168.349V168.05ZM148.058 169.913C147.521 169.913 146.961 169.936 146.379 169.982C145.811 170.028 145.289 170.12 144.814 170.258C144.354 170.396 143.97 170.604 143.663 170.88C143.357 171.156 143.203 171.524 143.203 171.984C143.203 172.306 143.265 172.575 143.387 172.789C143.525 173.004 143.702 173.181 143.917 173.319C144.131 173.457 144.369 173.556 144.63 173.618C144.891 173.664 145.159 173.687 145.435 173.687C146.448 173.687 147.222 173.388 147.759 172.789C148.311 172.176 148.587 171.409 148.587 170.488V169.913H148.058ZM159.384 165.979H156.485V171.662C156.485 172.322 156.608 172.797 156.853 173.089C157.098 173.365 157.49 173.503 158.026 173.503C158.226 173.503 158.441 173.48 158.671 173.434C158.901 173.388 159.108 173.319 159.292 173.227L159.361 174.998C159.1 175.09 158.809 175.159 158.487 175.205C158.18 175.267 157.858 175.297 157.52 175.297C156.492 175.297 155.703 175.014 155.15 174.446C154.613 173.879 154.345 173.027 154.345 171.892V165.979H152.251V164.207H154.345V161.078H156.485V164.207H159.384V165.979ZM174.158 168.05C174.158 167.237 173.913 166.638 173.422 166.255C172.931 165.856 172.279 165.657 171.466 165.657C170.853 165.657 170.27 165.779 169.718 166.025C169.181 166.255 168.728 166.554 168.36 166.922L167.21 165.541C167.746 165.035 168.398 164.636 169.165 164.345C169.948 164.054 170.784 163.908 171.673 163.908C172.456 163.908 173.131 164.023 173.698 164.253C174.281 164.468 174.757 164.767 175.125 165.15C175.493 165.534 175.769 165.986 175.953 166.508C176.137 167.029 176.229 167.589 176.229 168.188V172.95C176.229 173.319 176.237 173.71 176.252 174.124C176.283 174.523 176.329 174.853 176.39 175.113H174.434C174.312 174.592 174.25 174.07 174.25 173.549H174.181C173.783 174.132 173.276 174.584 172.663 174.906C172.064 175.228 171.351 175.389 170.523 175.389C170.093 175.389 169.641 175.328 169.165 175.205C168.705 175.098 168.283 174.914 167.9 174.653C167.516 174.392 167.194 174.047 166.933 173.618C166.688 173.188 166.565 172.659 166.565 172.03C166.565 171.202 166.788 170.55 167.233 170.074C167.677 169.583 168.26 169.215 168.981 168.97C169.702 168.709 170.515 168.54 171.42 168.464C172.325 168.387 173.238 168.349 174.158 168.349V168.05ZM173.629 169.913C173.092 169.913 172.532 169.936 171.949 169.982C171.382 170.028 170.86 170.12 170.385 170.258C169.925 170.396 169.541 170.604 169.234 170.88C168.928 171.156 168.774 171.524 168.774 171.984C168.774 172.306 168.836 172.575 168.958 172.789C169.096 173.004 169.273 173.181 169.487 173.319C169.702 173.457 169.94 173.556 170.201 173.618C170.461 173.664 170.73 173.687 171.006 173.687C172.018 173.687 172.793 173.388 173.33 172.789C173.882 172.176 174.158 171.409 174.158 170.488V169.913H173.629ZM190.932 165.979H188.033V171.662C188.033 172.322 188.155 172.797 188.401 173.089C188.646 173.365 189.038 173.503 189.574 173.503C189.774 173.503 189.989 173.48 190.219 173.434C190.449 173.388 190.656 173.319 190.84 173.227L190.909 174.998C190.648 175.09 190.357 175.159 190.035 175.205C189.728 175.267 189.406 175.297 189.068 175.297C188.04 175.297 187.25 175.014 186.698 174.446C186.161 173.879 185.893 173.027 185.893 171.892V165.979H183.799V164.207H185.893V161.078H188.033V164.207H190.932V165.979ZM195.352 175.113H193.189V164.207H195.352V175.113ZM195.72 160.272C195.72 160.671 195.575 161.001 195.283 161.262C195.007 161.523 194.669 161.653 194.271 161.653C193.872 161.653 193.534 161.523 193.258 161.262C192.982 160.986 192.844 160.656 192.844 160.272C192.844 159.874 192.982 159.544 193.258 159.283C193.534 159.007 193.872 158.869 194.271 158.869C194.669 158.869 195.007 159.007 195.283 159.283C195.575 159.544 195.72 159.874 195.72 160.272ZM201.238 166.002C201.514 165.419 201.951 164.928 202.549 164.529C203.163 164.115 203.884 163.908 204.712 163.908C205.448 163.908 206.108 164.077 206.691 164.414C207.289 164.752 207.757 165.311 208.094 166.094C208.463 165.388 208.976 164.851 209.636 164.483C210.296 164.1 211.017 163.908 211.799 163.908C212.505 163.908 213.11 164.031 213.617 164.276C214.123 164.506 214.545 164.821 214.882 165.219C215.22 165.618 215.465 166.086 215.618 166.623C215.787 167.16 215.872 167.735 215.872 168.349V175.113H213.709V169.062C213.709 168.617 213.67 168.195 213.594 167.796C213.517 167.398 213.387 167.045 213.202 166.738C213.018 166.431 212.773 166.186 212.466 166.002C212.159 165.818 211.768 165.726 211.293 165.726C210.802 165.726 210.38 165.833 210.027 166.048C209.674 166.247 209.383 166.516 209.153 166.853C208.938 167.175 208.777 167.543 208.67 167.957C208.578 168.372 208.532 168.793 208.532 169.223V175.113H206.369V168.625C206.369 168.195 206.33 167.804 206.254 167.451C206.177 167.098 206.047 166.799 205.862 166.554C205.678 166.293 205.441 166.094 205.149 165.956C204.858 165.802 204.497 165.726 204.068 165.726C203.27 165.726 202.603 166.055 202.066 166.715C201.544 167.359 201.284 168.226 201.284 169.315V175.113H199.121V166.554C199.121 166.262 199.113 165.887 199.098 165.426C199.082 164.966 199.059 164.56 199.029 164.207H201.077C201.107 164.483 201.13 164.798 201.146 165.15C201.161 165.488 201.169 165.772 201.169 166.002H201.238ZM227.508 168.694C227.492 168.264 227.416 167.865 227.278 167.497C227.155 167.114 226.963 166.784 226.702 166.508C226.457 166.232 226.143 166.017 225.759 165.864C225.391 165.695 224.954 165.611 224.448 165.611C223.987 165.611 223.55 165.695 223.136 165.864C222.737 166.017 222.384 166.232 222.078 166.508C221.786 166.784 221.541 167.114 221.341 167.497C221.157 167.865 221.05 168.264 221.019 168.694H227.508ZM229.694 169.568C229.694 169.691 229.694 169.814 229.694 169.936C229.694 170.059 229.686 170.182 229.671 170.304H221.019C221.035 170.765 221.134 171.202 221.318 171.616C221.518 172.015 221.778 172.368 222.101 172.674C222.423 172.966 222.791 173.196 223.205 173.365C223.635 173.533 224.087 173.618 224.563 173.618C225.299 173.618 225.936 173.457 226.472 173.135C227.009 172.812 227.431 172.421 227.738 171.961L229.257 173.181C228.674 173.948 227.983 174.515 227.186 174.883C226.403 175.236 225.529 175.412 224.563 175.412C223.734 175.412 222.967 175.274 222.262 174.998C221.556 174.722 220.95 174.339 220.444 173.848C219.938 173.342 219.539 172.736 219.247 172.03C218.956 171.325 218.81 170.542 218.81 169.683C218.81 168.839 218.948 168.065 219.224 167.359C219.516 166.638 219.915 166.025 220.421 165.518C220.927 165.012 221.525 164.621 222.216 164.345C222.906 164.054 223.65 163.908 224.448 163.908C225.245 163.908 225.966 164.038 226.61 164.299C227.27 164.56 227.822 164.936 228.267 165.426C228.727 165.917 229.08 166.516 229.326 167.221C229.571 167.911 229.694 168.694 229.694 169.568Z" fill="black"/>
</g>
<defs>
<linearGradient id="paint0_linear_1_2" x1="-9.60377" y1="17" x2="269" y2="17" gradientUnits="userSpaceOnUse">
<stop stop-color="#F06CFF"/>
<stop offset="1" stop-color="#00ABFE"/>
</linearGradient>
<linearGradient id="paint1_linear_1_2" x1="-0.989333" y1="140.564" x2="351.508" y2="140.564" gradientUnits="userSpaceOnUse">
<stop stop-color="#F06CFF"/>
<stop offset="1" stop-color="#00ABFE"/>
</linearGradient>
<clipPath id="clip0_1_2">
<rect width="341.269" height="183.917" fill="white"/>
</clipPath>
</defs>
</svg>
